<?xml version="1.0" standalone="no"?>
<!DOCTYPE svg PUBLIC "-//W3C//DTD SVG 20010904//EN"
 "http://www.w3.org/TR/2001/REC-SVG-20010904/DTD/svg10.dtd">
<svg version="1.0" xmlns="http://www.w3.org/2000/svg"
 width="257.000000pt" height="258.000000pt" viewBox="0 0 257.000000 258.000000"
 preserveAspectRatio="xMidYMid meet">

<g transform="translate(0.000000,258.000000) scale(0.100000,-0.100000)"
fill="#000000" stroke="none">
<path d="M517 2374 c-4 -4 -7 -211 -7 -461 l0 -453 120 0 120 0 2 178 3 177
107 3 108 3 2 -178 3 -178 120 0 120 0 0 455 0 455 -120 0 -120 0 -3 -173 -2
-173 -108 3 -107 3 -5 170 -5 170 -111 3 c-60 1 -113 -1 -117 -4z"/>
<path d="M1287 2373 c-4 -3 -7 -50 -7 -104 0 -79 3 -98 16 -103 9 -3 62 -6
120 -6 l104 0 2 -347 3 -348 120 0 120 0 3 347 2 347 118 3 117 3 0 105 0 105
-356 3 c-195 1 -358 -1 -362 -5z"/>
<path d="M759 1337 c-135 -38 -245 -163 -265 -299 l-6 -48 -239 0 -239 0 0
-60 0 -60 249 0 249 0 30 -53 c114 -202 380 -248 547 -95 31 28 67 73 81 100
l24 48 690 0 690 0 0 60 0 60 -677 2 -677 3 -11 55 c-38 203 -253 341 -446
287z"/>
</g>
</svg>
